{"title":"The.Collection.2012.RC.BRRip.AC3.5.1.XviD-DEYA","uid":8080517,"size":1596539731,"categoryP":"video","categoryS":"movies","magnet":"?xt=urn:btih:8bcbcb99e1d390d1b9e27eb7df14b27fbf1296a1&amp;dn=The.Collection.2012.RC.BRRip.AC3.5.1.XviD-DEYA&amp;tr=udp%3A%2F%2Ftracker.openbittorrent.com%3A80&amp;tr=udp%3A%2F%2Fopen.demonii.com%3A1337&amp;tr=udp%3A%2F%2Ftracker.coppersurfer.tk%3A6969&amp;tr=udp%3A%2F%2Fexodus.desync.com%3A6969","seeders":1,"leechers":0,"uploader":"SaM","files":3,"time":1359486515,"description":"\nTiTLE: The.Collection.2012.RC.BRRip.AC3.5.1.XviD-DEYA\n &lt;a href=&quot;\nhttp://www.imdb.com/title/tt1748227/&quot; rel=&quot;nofollow&quot; target=&quot;_NEW&quot;&gt;\nhttp://www.imdb.com/title/tt1748227/&lt;/a&gt;\n\nGeneral\nComplete name : C:UsersBakerDesktopThe.Collection.2012.RC.BRRip.AC3.5.1.XviD-DEYA\nFormat : AVI\nFormat/Info : Audio Video Interleave\nFile size : 1.47 GiB\nDuration : 1h 21mn\nOverall bit rate : 2 581 Kbps\n\nVideo\nID : 0\nFormat : MPEG-4 Visual\nFormat profile : Advanced Simple@L5\nFormat settings, BVOP : 2\nFormat settings, QPel : No\nFormat settings, GMC : No warppoints\nFormat settings, Matrix : Default (H.263)\nMuxing mode : Packed bitstream\nCodec ID : XVID\nCodec ID/Hint : XviD\nDuration : 1h 21mn\nBit rate : 2 190 Kbps\nWidth : 720 pixels\nHeight : 304 pixels\nDisplay aspect ratio : 2.35:1\nFrame rate : 24.000 fps\nColor space : YUV\nChroma subsampling : 4:2:0\nBit depth : 8 bits\nScan type : Progressive\nCompression mode : Lossy\nBits/(Pixel*Frame) : 0.417\nStream size : 1.25 GiB (85%)\nWriting library : XviD 64\n\nAudio\nID : 1\nFormat : AC-3\nFormat/Info : Audio Coding 3\nMode extension : CM (complete main)\nFormat settings, Endianness : Big\nCodec ID : 2000\nDuration : 1h 21mn\nBit rate mode : Constant\nBit rate : 384 Kbps\nChannel(s) : 6 channels\nChannel positions : Front: L C R, Side: L R, LFE\nSampling rate : 48.0 KHz\nBit depth : 16 bits\nCompression mode : Lossy\nStream size : 224 MiB (15%)\nAlignment : Aligned on interleaves\nInterleave, duration : 64 ms (1.54 video frames)\nInterleave, preload duration : 192 ms\nTitle : K0llekci0Her.track_3\n\nSOURCE: Ruskies 720p\n\nNOTES: Tweaked Enjoy ;)\n &lt;a href=&quot;\nhttp://img255.imageshack.us/img255/4022/81806100.png&quot; rel=&quot;nofollow&quot; target=&quot;_NEW&quot;&gt;\nhttp://img255.imageshack.us/img255/4022/81806100.png&lt;/a&gt;\n &lt;a href=&quot;\nhttp://img33.imageshack.us/img33/6493/62494801.png&quot; rel=&quot;nofollow&quot; target=&quot;_NEW&quot;&gt;\nhttp://img33.imageshack.us/img33/6493/62494801.png&lt;/a&gt;\n &lt;a href=&quot;\nhttp://img843.imageshack.us/img843/7300/10692213.png&quot; rel=&quot;nofollow&quot; target=&quot;_NEW&quot;&gt;\nhttp://img843.imageshack.us/img843/7300/10692213.png&lt;/a&gt;\n &lt;a href=&quot;\nhttp://img845.imageshack.us/img845/2879/12974878.png&quot; rel=&quot;nofollow&quot; target=&quot;_NEW&quot;&gt;\nhttp://img845.imageshack.us/img845/2879/12974878.png&lt;/a&gt;\n &lt;a href=&quot;\nhttp://img534.imageshack.us/img534/4900/50791074.png&quot; rel=&quot;nofollow&quot; target=&quot;_NEW&quot;&gt;\nhttp://img534.imageshack.us/img534/4900/50791074.png&lt;/a&gt;\n\nGreeTz: OURSELVES &amp; ET ;)","torrent":{"xt":"urn:btih:8bcbcb99e1d390d1b9e27eb7df14b27fbf1296a1","amp;dn":"The.Collection.2012.RC.BRRip.AC3.5.1.XviD-DEYA","amp;tr":["udp%3A%2F%2Ftracker.openbittorrent.com%3A80","udp%3A%2F%2Fopen.demonii.com%3A1337","udp%3A%2F%2Ftracker.coppersurfer.tk%3A6969","udp%3A%2F%2Fexodus.desync.com%3A6969"],"infoHash":"8bcbcb99e1d390d1b9e27eb7df14b27fbf1296a1","infoHashBuffer":{"type":"Buffer","data":[139,203,203,153,225,211,144,209,185,226,126,183,223,20,178,127,191,18,150,161]},"announce":[],"urlList":[]}}